<mxfile host="app.diagrams.net" agent="Mozilla/5.0 (Windows NT 10.0; Win64; x64) AppleWebKit/537.36 (KHTML, like Gecko) Chrome/131.0.0.0 Safari/537.36 Edg/131.0.0.0" version="25.0.1">
  <diagram name="Page-1" id="y1BIRQ241PaXOT0yB2VH">
    <mxGraphModel dx="1426" dy="827" grid="1" gridSize="10" guides="1" tooltips="1" connect="1" arrows="1" fold="1" page="1" pageScale="1" pageWidth="850" pageHeight="1100" math="0" shadow="0">
      <root>
        <mxCell id="0" />
        <mxCell id="1" parent="0" />
        <mxCell id="PRDxLV66vbrkGa5DszW6-1" value="SPSO" style="shape=umlActor;verticalLabelPosition=bottom;verticalAlign=top;html=1;outlineConnect=0;" vertex="1" parent="1">
          <mxGeometry x="203" y="400" width="30" height="60" as="geometry" />
        </mxCell>
        <mxCell id="PRDxLV66vbrkGa5DszW6-2" value="Printer management" style="swimlane;whiteSpace=wrap;html=1;" vertex="1" parent="1">
          <mxGeometry x="268" y="210" width="380" height="400" as="geometry" />
        </mxCell>
        <mxCell id="PRDxLV66vbrkGa5DszW6-3" value="add/remove&amp;nbsp; printer" style="ellipse;whiteSpace=wrap;html=1;" vertex="1" parent="PRDxLV66vbrkGa5DszW6-2">
          <mxGeometry x="230" y="40" width="100" height="50" as="geometry" />
        </mxCell>
        <mxCell id="PRDxLV66vbrkGa5DszW6-4" value="enable/disable printer" style="ellipse;whiteSpace=wrap;html=1;" vertex="1" parent="PRDxLV66vbrkGa5DszW6-2">
          <mxGeometry x="240" y="100" width="80" height="50" as="geometry" />
        </mxCell>
        <mxCell id="PRDxLV66vbrkGa5DszW6-5" value="view printers information" style="ellipse;whiteSpace=wrap;html=1;" vertex="1" parent="PRDxLV66vbrkGa5DszW6-2">
          <mxGeometry x="50" y="130" width="80" height="50" as="geometry" />
        </mxCell>
        <mxCell id="PRDxLV66vbrkGa5DszW6-6" value="configure printer" style="ellipse;whiteSpace=wrap;html=1;" vertex="1" parent="PRDxLV66vbrkGa5DszW6-2">
          <mxGeometry x="50" y="220" width="80" height="50" as="geometry" />
        </mxCell>
        <mxCell id="PRDxLV66vbrkGa5DszW6-7" value="manage printer" style="ellipse;whiteSpace=wrap;html=1;" vertex="1" parent="PRDxLV66vbrkGa5DszW6-2">
          <mxGeometry x="50" y="60" width="80" height="50" as="geometry" />
        </mxCell>
        <mxCell id="PRDxLV66vbrkGa5DszW6-8" value="configure date to reset default page " style="ellipse;whiteSpace=wrap;html=1;" vertex="1" parent="PRDxLV66vbrkGa5DszW6-2">
          <mxGeometry x="230" y="160" width="100" height="60" as="geometry" />
        </mxCell>
        <mxCell id="PRDxLV66vbrkGa5DszW6-9" value="configure allowed file-types" style="ellipse;whiteSpace=wrap;html=1;" vertex="1" parent="PRDxLV66vbrkGa5DszW6-2">
          <mxGeometry x="230" y="300" width="100" height="60" as="geometry" />
        </mxCell>
        <mxCell id="PRDxLV66vbrkGa5DszW6-10" value="configure default number of pages" style="ellipse;whiteSpace=wrap;html=1;" vertex="1" parent="PRDxLV66vbrkGa5DszW6-2">
          <mxGeometry x="240" y="230" width="120" height="60" as="geometry" />
        </mxCell>
        <mxCell id="PRDxLV66vbrkGa5DszW6-11" value="view service&#39;s log" style="ellipse;whiteSpace=wrap;html=1;" vertex="1" parent="PRDxLV66vbrkGa5DszW6-2">
          <mxGeometry x="50" y="310" width="120" height="70" as="geometry" />
        </mxCell>
        <mxCell id="PRDxLV66vbrkGa5DszW6-12" value="&amp;lt;&amp;lt;extend&amp;gt;&amp;gt;" style="html=1;verticalAlign=bottom;endArrow=open;dashed=1;endSize=8;curved=0;rounded=0;exitX=0;exitY=0.5;exitDx=0;exitDy=0;entryX=0.954;entryY=0.694;entryDx=0;entryDy=0;entryPerimeter=0;" edge="1" parent="PRDxLV66vbrkGa5DszW6-2" source="PRDxLV66vbrkGa5DszW6-4" target="PRDxLV66vbrkGa5DszW6-7">
          <mxGeometry x="-0.1679" y="12" relative="1" as="geometry">
            <mxPoint x="200" y="90" as="sourcePoint" />
            <mxPoint x="180" y="150" as="targetPoint" />
            <mxPoint as="offset" />
          </mxGeometry>
        </mxCell>
        <mxCell id="PRDxLV66vbrkGa5DszW6-13" value="&amp;lt;&amp;lt;extend&amp;gt;&amp;gt;" style="html=1;verticalAlign=bottom;endArrow=open;dashed=1;endSize=8;curved=0;rounded=0;exitX=0;exitY=0.5;exitDx=0;exitDy=0;entryX=1.015;entryY=0.363;entryDx=0;entryDy=0;entryPerimeter=0;" edge="1" parent="PRDxLV66vbrkGa5DszW6-2" source="PRDxLV66vbrkGa5DszW6-3" target="PRDxLV66vbrkGa5DszW6-7">
          <mxGeometry x="-0.1731" y="7" relative="1" as="geometry">
            <mxPoint x="140" y="95" as="sourcePoint" />
            <mxPoint x="140" y="40" as="targetPoint" />
            <mxPoint as="offset" />
          </mxGeometry>
        </mxCell>
        <mxCell id="PRDxLV66vbrkGa5DszW6-14" value="&amp;lt;&amp;lt;extend&amp;gt;&amp;gt;" style="html=1;verticalAlign=bottom;endArrow=open;dashed=1;endSize=8;curved=0;rounded=0;exitX=-0.016;exitY=0.4;exitDx=0;exitDy=0;exitPerimeter=0;entryX=0.938;entryY=0.693;entryDx=0;entryDy=0;entryPerimeter=0;" edge="1" parent="PRDxLV66vbrkGa5DszW6-2" source="PRDxLV66vbrkGa5DszW6-9" target="PRDxLV66vbrkGa5DszW6-6">
          <mxGeometry x="-0.1066" y="9" relative="1" as="geometry">
            <mxPoint x="250" y="135" as="sourcePoint" />
            <mxPoint x="130" y="260" as="targetPoint" />
            <mxPoint as="offset" />
          </mxGeometry>
        </mxCell>
        <mxCell id="PRDxLV66vbrkGa5DszW6-15" value="&amp;lt;&amp;lt;extend&amp;gt;&amp;gt;" style="html=1;verticalAlign=bottom;endArrow=open;dashed=1;endSize=8;curved=0;rounded=0;exitX=0;exitY=0.5;exitDx=0;exitDy=0;entryX=0.989;entryY=0.294;entryDx=0;entryDy=0;entryPerimeter=0;" edge="1" parent="PRDxLV66vbrkGa5DszW6-2" source="PRDxLV66vbrkGa5DszW6-8" target="PRDxLV66vbrkGa5DszW6-6">
          <mxGeometry x="0.0489" y="7" relative="1" as="geometry">
            <mxPoint x="260" y="145" as="sourcePoint" />
            <mxPoint x="150" y="105" as="targetPoint" />
            <mxPoint as="offset" />
          </mxGeometry>
        </mxCell>
        <mxCell id="PRDxLV66vbrkGa5DszW6-16" value="&amp;lt;&amp;lt;extend&amp;gt;&amp;gt;" style="html=1;verticalAlign=bottom;endArrow=open;dashed=1;endSize=8;curved=0;rounded=0;exitX=0;exitY=0.5;exitDx=0;exitDy=0;entryX=1;entryY=0.5;entryDx=0;entryDy=0;" edge="1" parent="PRDxLV66vbrkGa5DszW6-2" source="PRDxLV66vbrkGa5DszW6-10" target="PRDxLV66vbrkGa5DszW6-6">
          <mxGeometry x="-0.1075" y="7" relative="1" as="geometry">
            <mxPoint x="290" y="170" as="sourcePoint" />
            <mxPoint x="210" y="170" as="targetPoint" />
            <mxPoint as="offset" />
          </mxGeometry>
        </mxCell>
        <mxCell id="PRDxLV66vbrkGa5DszW6-17" value="" style="endArrow=open;endFill=1;endSize=12;html=1;rounded=0;exitX=0.5;exitY=0.5;exitDx=0;exitDy=0;exitPerimeter=0;entryX=0;entryY=0.4;entryDx=0;entryDy=0;entryPerimeter=0;" edge="1" parent="1" source="PRDxLV66vbrkGa5DszW6-1" target="PRDxLV66vbrkGa5DszW6-7">
          <mxGeometry width="160" relative="1" as="geometry">
            <mxPoint x="428" y="440" as="sourcePoint" />
            <mxPoint x="588" y="440" as="targetPoint" />
          </mxGeometry>
        </mxCell>
        <mxCell id="PRDxLV66vbrkGa5DszW6-18" value="" style="endArrow=open;endFill=1;endSize=12;html=1;rounded=0;exitX=0.5;exitY=0.5;exitDx=0;exitDy=0;exitPerimeter=0;entryX=0;entryY=0.5;entryDx=0;entryDy=0;" edge="1" parent="1" source="PRDxLV66vbrkGa5DszW6-1" target="PRDxLV66vbrkGa5DszW6-5">
          <mxGeometry width="160" relative="1" as="geometry">
            <mxPoint x="243" y="440" as="sourcePoint" />
            <mxPoint x="328" y="300" as="targetPoint" />
          </mxGeometry>
        </mxCell>
        <mxCell id="PRDxLV66vbrkGa5DszW6-19" value="" style="endArrow=open;endFill=1;endSize=12;html=1;rounded=0;exitX=0.5;exitY=0.5;exitDx=0;exitDy=0;exitPerimeter=0;entryX=-0.011;entryY=0.418;entryDx=0;entryDy=0;entryPerimeter=0;" edge="1" parent="1" source="PRDxLV66vbrkGa5DszW6-1" target="PRDxLV66vbrkGa5DszW6-6">
          <mxGeometry width="160" relative="1" as="geometry">
            <mxPoint x="253" y="450" as="sourcePoint" />
            <mxPoint x="338" y="310" as="targetPoint" />
          </mxGeometry>
        </mxCell>
        <mxCell id="PRDxLV66vbrkGa5DszW6-20" value="" style="endArrow=open;endFill=1;endSize=12;html=1;rounded=0;exitX=0.5;exitY=0.5;exitDx=0;exitDy=0;exitPerimeter=0;entryX=-0.007;entryY=0.412;entryDx=0;entryDy=0;entryPerimeter=0;" edge="1" parent="1" source="PRDxLV66vbrkGa5DszW6-1" target="PRDxLV66vbrkGa5DszW6-11">
          <mxGeometry width="160" relative="1" as="geometry">
            <mxPoint x="243" y="440" as="sourcePoint" />
            <mxPoint x="327" y="461" as="targetPoint" />
          </mxGeometry>
        </mxCell>
      </root>
    </mxGraphModel>
  </diagram>
</mxfile>
